<?xml version="1.0" encoding="UTF-8" standalone="no"?>
<svg
   viewBox="0 0 448 512"
   version="1.1"
   id="svg1"
   sodipodi:docname="angle-down.svg"
   inkscape:version="1.3.2 (091e20e, 2023-11-25, custom)"
   xmlns:inkscape="http://www.inkscape.org/namespaces/inkscape"
   xmlns:sodipodi="http://sodipodi.sourceforge.net/DTD/sodipodi-0.dtd"
   xmlns="http://www.w3.org/2000/svg"
   xmlns:svg="http://www.w3.org/2000/svg">
  <defs
     id="defs1" />
  <sodipodi:namedview
     id="namedview1"
     pagecolor="#505050"
     bordercolor="#eeeeee"
     borderopacity="1"
     inkscape:showpageshadow="0"
     inkscape:pageopacity="0"
     inkscape:pagecheckerboard="0"
     inkscape:deskcolor="#505050"
     inkscape:zoom="0.99414062"
     inkscape:cx="223.81139"
     inkscape:cy="256"
     inkscape:window-width="1366"
     inkscape:window-height="705"
     inkscape:window-x="-8"
     inkscape:window-y="-8"
     inkscape:window-maximized="1"
     inkscape:current-layer="svg1" />
  <!--! Font Awesome Free 6.5.1 by @fontawesome - https://fontawesome.com License - https://fontawesome.com/license/free (Icons: CC BY 4.0, Fonts: SIL OFL 1.1, Code: MIT License) Copyright 2023 Fonticons, Inc. -->
  <path
     d="M201.4 342.6c12.5 12.5 32.8 12.5 45.3 0l160-160c12.5-12.5 12.5-32.8 0-45.3s-32.8-12.5-45.3 0L224 274.7 86.6 137.4c-12.5-12.5-32.8-12.5-45.3 0s-12.5 32.8 0 45.3l160 160z"
     id="path1" />
  <path
     style="fill:#ffffff;fill-opacity:0.733333;stroke-width:1.00589"
     d="M 210.73477,348.14543 C 205.5421,345.51695 192.95418,333.32315 120.57913,260.81239 26.971122,167.02887 32.652208,173.5894 32.730877,159.36498 c 0.06511,-11.77248 6.459052,-21.77309 17.769966,-27.79357 3.580561,-1.90583 5.870603,-2.29927 13.37342,-2.29757 7.884636,0.002 9.702162,0.34898 14.082515,2.6901 3.671204,1.96211 23.908622,21.58654 74.936382,72.66657 38.4488,38.48819 70.35646,69.97853 70.90591,69.97853 0.54946,0 32.68899,-31.64169 71.42119,-70.31488 49.9473,-49.87119 71.73824,-70.97443 74.9487,-72.58338 6.31374,-3.16418 17.08703,-3.78992 24.26313,-1.40926 4.0409,1.34057 6.95273,3.34557 11.50151,7.91963 7.44678,7.48817 10.05386,14.27319 9.25669,24.09093 -1.01981,12.55972 2.16116,8.97847 -88.67991,99.83894 -67.12485,67.13918 -84.57753,84.07532 -88.61647,85.99367 -3.66904,1.74267 -7.20615,2.47903 -13.07662,2.72231 -7.32009,0.30335 -8.59245,0.0575 -14.08252,-2.72157 z"
     id="path2" />
  <path
     style="fill:#ffffff;fill-opacity:0.733333;stroke-width:1.00589"
     d="m 212.03179,347.99115 c -2.05284,-1.08406 -9.29528,-7.12473 -16.0943,-13.42369 C 179.07328,318.94356 50.158942,189.37931 42.460744,180.31697 c -8.78449,-10.34113 -9.601448,-12.23789 -9.039886,-20.98821 0.805136,-12.54573 7.207616,-22.1469 18.372775,-27.55186 5.98943,-2.89944 18.336363,-2.81979 24.487574,0.15796 3.234755,1.56592 24.313923,21.83663 75.312893,72.42436 38.95148,38.6374 71.44835,70.24982 72.21527,70.24982 0.76693,0 31.64957,-29.98821 68.62811,-66.64047 36.97854,-36.65226 69.70887,-68.72338 72.73407,-71.26915 6.75244,-5.68233 10.2906,-6.93911 19.53547,-6.93911 5.72238,0 8.26505,0.53243 12.41237,2.59913 5.84587,2.91313 12.6167,9.94729 15.41054,16.00991 2.40382,5.2163 2.56606,17.40087 0.29541,22.18592 -3.00098,6.32409 -14.89797,19.01763 -66.76859,71.23901 -68.16338,68.62431 -104.63535,103.87071 -110.00544,106.30894 -5.89627,2.67713 -18.85217,2.61668 -24.01952,-0.11207 z"
     id="path3" />
</svg>
