<?xml version="1.0" encoding="UTF-8" standalone="no"?>
<svg
   viewBox="0 0 448 512"
   version="1.1"
   id="svg1"
   sodipodi:docname="instagram.svg"
   inkscape:version="1.3.2 (091e20e, 2023-11-25, custom)"
   xmlns:inkscape="http://www.inkscape.org/namespaces/inkscape"
   xmlns:sodipodi="http://sodipodi.sourceforge.net/DTD/sodipodi-0.dtd"
   xmlns="http://www.w3.org/2000/svg"
   xmlns:svg="http://www.w3.org/2000/svg">
  <defs
     id="defs1" />
  <sodipodi:namedview
     id="namedview1"
     pagecolor="#505050"
     bordercolor="#eeeeee"
     borderopacity="1"
     inkscape:showpageshadow="0"
     inkscape:pageopacity="0"
     inkscape:pagecheckerboard="0"
     inkscape:deskcolor="#505050"
     inkscape:zoom="0.99414062"
     inkscape:cx="223.81139"
     inkscape:cy="256"
     inkscape:window-width="1366"
     inkscape:window-height="705"
     inkscape:window-x="-8"
     inkscape:window-y="-8"
     inkscape:window-maximized="1"
     inkscape:current-layer="svg1" />
  <!--! Font Awesome Free 6.5.1 by @fontawesome - https://fontawesome.com License - https://fontawesome.com/license/free (Icons: CC BY 4.0, Fonts: SIL OFL 1.1, Code: MIT License) Copyright 2023 Fonticons, Inc. -->
  <path
     d="M224.1 141c-63.6 0-114.9 51.3-114.9 114.9s51.3 114.9 114.9 114.9S339 319.5 339 255.9 287.7 141 224.1 141zm0 189.6c-41.1 0-74.7-33.5-74.7-74.7s33.5-74.7 74.7-74.7 74.7 33.5 74.7 74.7-33.6 74.7-74.7 74.7zm146.4-194.3c0 14.9-12 26.8-26.8 26.8-14.9 0-26.8-12-26.8-26.8s12-26.8 26.8-26.8 26.8 12 26.8 26.8zm76.1 27.2c-1.7-35.9-9.9-67.7-36.2-93.9-26.2-26.2-58-34.4-93.9-36.2-37-2.1-147.9-2.1-184.9 0-35.8 1.7-67.6 9.9-93.9 36.1s-34.4 58-36.2 93.9c-2.1 37-2.1 147.9 0 184.9 1.7 35.9 9.9 67.7 36.2 93.9s58 34.4 93.9 36.2c37 2.1 147.9 2.1 184.9 0 35.9-1.7 67.7-9.9 93.9-36.2 26.2-26.2 34.4-58 36.2-93.9 2.1-37 2.1-147.8 0-184.8zM398.8 388c-7.8 19.6-22.9 34.7-42.6 42.6-29.5 11.7-99.5 9-132.1 9s-102.7 2.6-132.1-9c-19.6-7.8-34.7-22.9-42.6-42.6-11.7-29.5-9-99.5-9-132.1s-2.6-102.7 9-132.1c7.8-19.6 22.9-34.7 42.6-42.6 29.5-11.7 99.5-9 132.1-9s102.7-2.6 132.1 9c19.6 7.8 34.7 22.9 42.6 42.6 11.7 29.5 9 99.5 9 132.1s2.7 102.7-9 132.1z"
     id="path1" />
  <path
     style="fill:#ffffff;fill-opacity:0.733333;stroke-width:1"
     d="M 158.42829,478.82145 C 115.20439,477.6863 96.193134,474.90656 75.796575,466.73938 49.150802,456.06989 25.760892,433.46078 14.518939,407.5073 6.9439842,390.01955 3.5570222,373.2866 2.0746506,346.0275 -0.4767234,299.11071 0.12187974,176.71551 3.0315062,150.38114 6.7744832,116.50429 16.546035,93.116823 35.38595,72.943227 53.14172,53.93052 76.955925,41.558971 105.11591,36.718302 c 19.16871,-3.295077 38.26306,-3.927782 118.69548,-3.933058 83.41348,-0.0055 102.01564,0.677754 121.65769,4.468279 27.29147,5.266711 47.89026,16.089806 65.63685,34.487177 21.38506,22.169245 31.1193,45.89047 34.54119,84.17286 1.62578,18.18838 2.38047,138.84391 1.08219,173.01375 -1.64809,43.37665 -4.57051,59.92114 -14.14878,80.09949 -6.17662,13.01215 -11.53764,20.8646 -21.02255,30.79234 -10.27416,10.75385 -18.67763,16.93305 -31.83303,23.40732 -18.41925,9.06482 -34.94341,12.86064 -63.46495,14.57879 -22.30771,1.34381 -121.12951,1.98008 -157.83171,1.0162 z m 138.9427,-39.25066 c 22.89505,-1.05207 39.19897,-2.96852 51.05853,-6.00169 20.09148,-5.13853 38.19898,-19.89832 47.43637,-38.66633 5.46492,-11.10333 7.87492,-20.31378 10.23049,-39.09857 1.59312,-12.70445 1.7936,-23.74782 1.7936,-98.79831 0,-88.49907 -0.33537,-97.10656 -4.61583,-118.46695 -1.08345,-5.40673 -2.89605,-12.19651 -4.02798,-15.08841 C 394.09257,110.28391 381.246,94.828707 369.16306,87.258711 357.48244,79.940764 343.09671,75.931293 319.37132,73.381162 303.53509,71.679 172.30777,70.898298 146.93393,72.355291 113.97145,74.248032 99.756853,76.843901 86.003929,83.482323 71.435058,90.514597 59.330687,102.53503 51.927771,117.32219 42.185252,136.78265 40.17774,157.02147 39.768572,239.9057 c -0.518521,105.03565 1.700859,133.88392 11.850643,154.0387 6.760302,13.42417 15.211903,22.76005 27.846404,30.75995 14.573944,9.22792 33.438381,13.25752 69.406681,14.82586 25.46291,1.11027 124.63065,1.13737 148.49869,0.0405 z"
     id="path2" />
  <path
     style="fill:#ffffff;fill-opacity:0.733333;stroke-width:1"
     d="M 141.95043,477.7366 C 114.00599,476.36166 96.539232,473.59666 81.365471,468.14595 46.393169,455.58323 19.9052,427.4113 9.586513,391.80367 2.3710169,366.9045 1.5313447,352.51281 1.5751214,254.49116 1.6133317,168.93354 2.146027,154.68009 6.0641646,134.37676 13.511974,95.78309 34.390321,66.892421 67.006764,50.046688 95.503935,35.328475 115.23426,33.210879 223.81139,33.217319 c 103.86226,0.0062 125.33207,1.997495 152.14295,14.111333 21.31717,9.631641 42.68575,29.873092 53.8077,50.969503 10.4607,19.842145 14.30614,37.875115 15.93272,74.715595 1.38861,31.45073 0.64665,168.99074 -0.99573,184.58153 -2.63769,25.03908 -6.09812,37.87695 -14.77702,54.82122 -18.16462,35.46376 -49.26432,56.49815 -92.97777,62.88581 -5.79242,0.84642 -23.88491,1.96535 -40.20554,2.48649 -34.34779,1.09679 -132.1061,1.06383 -154.78827,-0.0522 z m 181.45466,-39.47535 c 23.27705,-2.89824 33.21324,-5.66212 44.25181,-12.3092 17.29396,-10.41389 28.91673,-26.10203 34.6405,-46.75694 5.41,-19.52262 5.59258,-23.49532 5.59258,-121.68627 0,-95.23211 -0.2237,-101.16953 -4.54789,-120.70727 -1.04079,-4.70255 -2.60824,-10.57286 -3.48322,-13.04513 C 397.14578,116.09055 389.2468,104.57883 381.13104,96.463068 368.63225,83.964273 354.29816,77.851565 328.15326,73.870938 319.09855,72.492334 304.33738,72.143506 236.53385,71.70584 154.16243,71.174141 135.12028,71.685334 113.66601,75.004276 83.717429,79.637274 63.626927,93.32677 51.759795,117.18664 c -8.112919,16.31171 -9.982748,27.77517 -11.649227,71.41847 -1.307919,34.25299 -0.57911,142.86062 1.080003,160.94302 3.115886,33.95951 8.646056,48.40839 24.655179,64.41751 10.727853,10.72786 20.198678,16.16511 34.88862,20.02973 21.75653,5.7237 36.44166,6.41602 130.11828,6.1343 66.13374,-0.19888 81.66119,-0.51234 92.55244,-1.86842 z"
     id="path3" />
  <path
     style="fill:#ffffff;fill-opacity:0.733333;stroke-width:1"
     d="m 205.06549,368.66949 c -36.42544,-6.13271 -68.6881,-30.70494 -84.43524,-64.30844 -14.84461,-31.67757 -14.50315,-66.64065 0.96351,-98.65575 14.49452,-30.00283 40.40724,-51.16752 74.18724,-60.59379 9.25034,-2.5813 11.18806,-2.76479 28.53334,-2.70203 16.80189,0.0608 19.56413,0.32407 28.44402,2.71116 42.81027,11.50826 75.47299,46.47294 83.7429,89.64483 1.81305,9.4648 2.10037,29.38936 0.56006,38.83767 -6.83658,41.93566 -36.48038,77.16471 -76.10041,90.43864 -17.64743,5.91243 -38.17194,7.6117 -55.89542,4.62771 z m 33.55819,-39.15487 c 15.82262,-3.02737 28.62635,-10.27713 40.5667,-22.9698 13.31458,-14.15347 19.76483,-30.87355 19.69316,-51.04777 -0.1052,-29.61048 -16.21581,-54.94981 -42.88354,-67.4487 -11.77507,-5.51885 -21.28666,-7.32909 -35.54689,-6.76525 -19.96793,0.78952 -35.50204,7.65536 -49.45115,21.85666 -17.97654,18.30157 -25.38105,42.22811 -20.67692,66.81436 2.94048,15.36849 9.39908,27.44659 20.74236,38.78988 18.13507,18.13507 42.3766,25.58829 67.55628,20.77062 z"
     id="path4" />
  <path
     style="fill:#ffffff;fill-opacity:0.733333;stroke-width:1"
     d="m 202.81383,367.66205 c -33.63736,-6.98533 -62.23935,-28.03316 -78.31706,-57.63248 -10.60626,-19.52629 -14.35906,-35.57978 -13.57099,-58.05315 0.61844,-17.63619 3.52616,-29.45025 11.11313,-45.15261 15.07546,-31.2009 41.83168,-52.88207 75.9997,-61.58427 7.90664,-2.01373 11.89545,-2.40137 24.64439,-2.39501 17.23834,0.009 24.14938,0.90309 35.45965,4.58941 32.83377,10.70142 59.83277,36.26812 72.1583,68.3303 5.2032,13.53502 6.83549,22.90848 6.91904,39.73281 0.077,15.50753 -0.8294,21.82555 -4.97863,34.70334 -9.59397,29.7764 -31.21182,54.59618 -59.30491,68.08888 -15.84996,7.6125 -26.60347,10.02413 -46.61032,10.45301 -11.71998,0.25124 -18.62931,-0.0662 -23.5123,-1.08023 z m 40.20012,-38.74062 c 25.80189,-6.54294 47.06466,-27.46934 53.85623,-53.00425 2.88557,-10.84913 2.87927,-28.85142 -0.0139,-39.82052 -6.86283,-26.01913 -28.70938,-47.3986 -54.69489,-53.52548 -8.39627,-1.97968 -27.07478,-1.93754 -36.25754,0.0818 -21.05606,4.63035 -41.45797,21.85029 -50.98387,43.03219 -8.53995,18.98954 -8.16396,43.24843 0.97296,62.77461 8.97205,19.17388 29.47915,35.9172 50.12261,40.92334 8.96801,2.17479 27.51416,1.94336 36.99838,-0.46169 z"
     id="path5" />
  <path
     style="fill:#ffffff;fill-opacity:0.733333;stroke-width:1"
     d="m 200.67583,366.6669 c -40.3127,-8.88585 -73.51837,-40.16256 -85.58416,-80.61246 -3.57753,-11.99349 -4.53024,-36.10935 -2.00081,-50.64636 5.71817,-32.86314 29.36107,-64.62068 59.41995,-79.81385 19.02367,-9.61547 29.13318,-11.93287 51.79765,-11.87358 15.45112,0.0404 18.8388,0.35888 27.64435,2.59872 38.62033,9.82373 71.32691,42.57197 81.70745,81.81152 2.30563,8.71553 2.58672,11.70565 2.61978,27.86911 0.0317,15.50927 -0.27404,19.23768 -2.13196,25.99602 -5.91139,21.50322 -14.84189,37.20132 -29.86517,52.49727 -10.99148,11.19097 -18.39552,16.61497 -31.60071,23.14985 -10.42557,5.15931 -19.36373,7.99866 -29.70906,9.43756 -10.48887,1.45887 -34.88427,1.2202 -42.29731,-0.4138 z m 47.02924,-38.55779 c 12.34478,-4.46575 20.04945,-9.38276 29.41895,-18.77475 13.85561,-13.88885 19.62099,-25.40385 21.74761,-43.43572 3.26237,-27.66206 -6.61308,-52.57178 -27.41145,-69.14236 -8.03081,-6.39834 -18.84756,-11.97435 -27.49077,-14.17141 -8.01961,-2.03856 -30.97452,-2.02699 -39.65823,0.02 -8.41949,1.98468 -20.29987,8.23984 -28.50634,15.00893 -24.25765,20.00884 -33.25322,51.78001 -23.42996,82.75157 7.20224,22.70782 28.0704,42.32635 52.25177,49.12282 8.02573,2.25573 35.45832,1.37755 43.07842,-1.37905 z"
     id="path6" />
  <path
     style="fill:#ffffff;fill-opacity:0.733333;stroke-width:1"
     d="m 196.50133,365.20326 c -32.64781,-8.77738 -61.83093,-33.59866 -75.29341,-64.0397 -8.75465,-19.79582 -11.33012,-43.17959 -7.35625,-66.79028 4.42986,-26.31987 23.7055,-55.53744 47.13738,-71.44972 8.70042,-5.90834 25.29224,-13.64583 34.7446,-16.20291 6.89725,-1.86587 10.71269,-2.15695 28.58069,-2.18041 19.57874,-0.0257 21.07327,0.11048 29.57368,2.69487 11.45795,3.48358 21.95786,8.34883 31.08961,14.40572 8.36476,5.54817 22.18229,18.4509 28.33739,26.46133 10.1504,13.20999 18.31757,30.94449 21.23394,46.10813 1.95092,10.14378 1.85767,34.32398 -0.1705,44.21326 -5.05513,24.6486 -20.88388,49.59064 -42.27214,66.61004 -8.54512,6.79966 -23.83148,14.81634 -35.60337,18.6716 -8.13058,2.66274 -9.6359,2.81562 -30.67977,3.11591 -19.3169,0.27565 -23.04382,0.07 -29.32185,-1.61784 z m 52.79398,-37.55384 c 11.21019,-3.95553 17.84493,-8.36104 28.37316,-18.83999 7.44076,-7.40591 10.53353,-11.36659 13.74579,-17.60314 6.28533,-12.20294 7.72865,-18.72733 7.78825,-35.20629 0.0437,-12.05715 -0.28818,-15.16244 -2.3069,-21.59127 -6.74798,-21.48965 -19.71627,-36.82212 -39.56954,-46.78327 -11.84717,-5.94418 -16.99702,-6.84454 -36.42135,-6.36764 -14.99093,0.36805 -16.72411,0.61089 -23.12843,3.24053 -11.56061,4.74684 -18.82168,9.6194 -27.78022,18.64199 -9.78482,9.85479 -15.54965,19.66355 -19.24307,32.74178 -3.05769,10.82711 -3.08178,28.60083 -0.0541,39.88783 5.73394,21.37555 19.99898,38.35059 41.19998,49.02698 10.82987,5.45369 14.98027,6.17343 33.42132,5.79572 14.76828,-0.3025 17.41026,-0.62683 23.97508,-2.94323 z"
     id="path7" />
  <path
     style="fill:#ffffff;fill-opacity:0.733333;stroke-width:1"
     d="M 138.31041,477.17327 C 125.10009,476.23601 109.38719,474.4724 102.17259,473.11718 77.375109,468.45912 56.406488,457.60915 39.281813,440.5751 18.937141,420.3381 7.7987918,394.97162 3.949819,360.11002 2.4055763,346.12323 1.5827348,200.66492 2.8885911,172.51081 4.0211554,148.09284 5.6869332,135.73516 9.7359613,121.71316 22.79385,76.49299 59.404665,44.821154 106.72766,37.806127 c 19.59073,-2.904075 42.59561,-3.6244 116.07784,-3.63461 73.72934,-0.01024 100.45998,0.804346 118.19254,3.6018 28.18539,4.446475 48.16784,14.405974 67.45572,33.620761 20.39891,20.321608 30.44067,41.826862 34.76894,74.460542 1.39724,10.53469 1.73774,25.62312 2.09973,93.04518 0.66514,123.88339 -0.78862,141.6733 -13.80955,168.99018 -19.34988,40.59449 -54.02491,63.08084 -104.89636,68.0241 -10.46133,1.01655 -176.11344,2.12425 -188.30611,1.25919 z m 192.95067,-39.50168 c 24.53463,-3.86271 36.50917,-9.05098 49.60862,-21.49417 16.79997,-15.95833 24.66962,-36.10601 26.53456,-67.93315 1.19781,-20.44177 1.20386,-161.93334 0.008,-182.33925 -0.98219,-16.7571 -3.68148,-32.27062 -7.39507,-42.50143 C 395.14444,109.9799 379.09651,91.47775 366.50905,84.771296 358.308,80.401861 347.50834,76.943642 333.94412,74.343494 322.7224,72.192382 319.87935,72.115298 235.40849,71.671855 147.10972,71.208317 130.32173,71.657025 111.38289,74.9868 79.203131,80.64456 57.756756,97.863886 47.339762,126.40713 c -6.96748,19.09135 -8.521553,48.14304 -7.841223,146.58316 0.411131,59.4885 0.815841,75.8538 2.118075,85.64869 2.201707,16.56037 4.890253,26.58054 9.841019,36.67733 3.502671,7.14348 5.861785,10.21115 14.339867,18.64683 14.157505,14.08667 23.78006,18.78957 47.36556,23.14932 15.38579,2.84404 32.34138,3.2696 119.70138,3.00434 81.15482,-0.24642 85.04465,-0.34308 98.39664,-2.44521 z"
     id="path8" />
  <path
     style="fill:#ffffff;fill-opacity:0.733333;stroke-width:1"
     d="m 129.25737,476.12658 c -1.65973,-0.20113 -8.74515,-1.05953 -15.7454,-1.90755 C 97.244278,472.24834 84.47495,468.81211 72.711011,463.23947 35.625235,445.67178 13.830087,415.56567 5.7577634,370.7555 3.6067464,358.81501 3.5678066,356.84918 3.544427,259.01768 3.5258472,181.2706 3.819285,157.00792 4.8826302,148.36935 8.6187515,118.01729 19.248963,93.275215 36.509225,74.757691 49.810674,60.487346 65.363224,50.402816 84.027578,43.946005 107.38334,35.866234 122.49239,34.889324 223.81139,34.907972 c 83.22569,0.01532 101.54364,0.606106 120.55792,3.888216 30.87804,5.329951 56.49564,21.098789 75.57417,46.519465 11.07308,14.754027 17.63521,30.675557 21.837,52.982517 1.99099,10.57002 2.10771,15.29018 2.54964,103.11637 0.6358,126.3576 -0.37216,139.30306 -12.89718,165.64021 -14.20017,29.85956 -37.99651,50.97265 -68.80819,61.04941 -16.85387,5.51194 -25.44534,6.73894 -53.81532,7.68572 -25.20662,0.8412 -173.10052,1.11854 -179.55206,0.3367 z m 204.19646,-38.40549 c 24.89803,-4.64061 35.06665,-9.48832 48.78586,-23.25779 13.64498,-13.69497 19.24234,-25.0742 23.76725,-48.31792 1.44991,-7.44797 1.72143,-20.1548 2.10641,-98.5776 0.46409,-94.53904 -0.002,-110.39269 -3.79341,-128.99689 -2.58847,-12.70184 -5.11413,-19.34504 -10.32346,-27.15359 -5.60991,-8.40903 -16.70049,-19.96662 -23.47442,-24.462898 -11.51603,-7.643904 -31.65224,-13.16293 -53.16253,-14.571026 -19.57439,-1.281368 -173.05947,-1.200896 -188.10216,0.09862 -31.160777,2.691937 -48.634862,9.608056 -64.419727,25.49687 -6.741162,6.785554 -8.959826,9.903554 -13.309752,18.704824 -3.096938,6.26609 -6.021054,14.03944 -7.189391,19.11199 -4.255963,18.47803 -4.608352,28.05303 -4.553456,123.72495 0.04634,80.76308 0.245359,92.21941 1.764031,101.54583 2.600453,15.96985 4.525486,22.8228 9.236705,32.8819 3.428107,7.31947 5.919092,10.88292 12.21788,17.47815 14.350529,15.02591 24.860263,20.81045 45.63288,25.11625 16.77965,3.47812 30.32674,3.86289 124.73085,3.54264 84.76438,-0.28755 89.55076,-0.40061 100.08644,-2.36431 z"
     id="path9" />
  <path
     style="fill:#ffffff;fill-opacity:0.733333;stroke-width:1"
     d="m 336.77912,161.58608 c -4.82564,-1.33822 -6.18388,-2.13858 -11.24819,-6.62811 -7.46385,-6.61674 -9.84662,-19.97509 -5.30329,-29.7315 4.36545,-9.37441 12.96062,-14.87786 23.28513,-14.90935 10.18178,-0.0311 19.01683,5.46127 23.90965,14.86345 2.97566,5.71814 2.95534,16.5564 -0.0419,22.31813 -5.97147,11.47941 -18.7662,17.36946 -30.60145,14.08738 z"
     id="path10" />
  <path
     style="fill:#ffffff;fill-opacity:0.733333;stroke-width:1"
     d="m 336.96795,161.06894 c -7.98694,-2.61916 -14.85327,-9.13904 -16.93218,-16.07783 -4.3888,-14.64849 2.86388,-28.89427 16.78442,-32.96813 15.80853,-4.62638 32.34287,7.78383 32.34287,24.27564 0,8.99663 -6.00702,18.51281 -14.38367,22.78626 -4.43452,2.26232 -13.78627,3.30403 -17.81144,1.98406 z"
     id="path11" />
  <path
     style="fill:#ffffff;fill-opacity:0.733333;stroke-width:1"
     d="m 334.38155,159.51624 c -4.09893,-1.78482 -10.23359,-7.24249 -12.01666,-10.69056 -11.0018,-21.27513 10.08673,-44.77159 31.20682,-34.77008 17.00892,8.05465 19.89615,28.44116 5.78686,40.86065 -2.4938,2.19514 -6.17399,4.44665 -8.1782,5.00336 -5.04644,1.40175 -13.09722,1.20843 -16.79882,-0.40337 z"
     id="path12" />
  <path
     style="fill:#ffffff;fill-opacity:0.733333;stroke-width:1"
     d="m 339.99214,160.17052 c -5.65852,-0.66076 -7.43337,-1.52545 -12.10998,-5.89986 -6.29786,-5.89091 -8.4752,-11.37342 -7.73942,-19.48772 1.30929,-14.4391 14.19525,-24.93612 27.1924,-22.15117 6.79375,1.45572 9.93394,3.3042 14.58028,8.58271 10.13262,11.51127 7.39808,25.73679 -7.03391,36.59151 -1.86395,1.40193 -10.87625,2.83315 -14.88937,2.36453 z"
     id="path13" />
</svg>
