<?xml version="1.0" encoding="UTF-8" standalone="no"?>
<svg
   viewBox="0 0 448 512"
   version="1.1"
   id="svg1"
   sodipodi:docname="linkedin-in.svg"
   inkscape:version="1.3.2 (091e20e, 2023-11-25, custom)"
   xmlns:inkscape="http://www.inkscape.org/namespaces/inkscape"
   xmlns:sodipodi="http://sodipodi.sourceforge.net/DTD/sodipodi-0.dtd"
   xmlns="http://www.w3.org/2000/svg"
   xmlns:svg="http://www.w3.org/2000/svg">
  <defs
     id="defs1" />
  <sodipodi:namedview
     id="namedview1"
     pagecolor="#505050"
     bordercolor="#eeeeee"
     borderopacity="1"
     inkscape:showpageshadow="0"
     inkscape:pageopacity="0"
     inkscape:pagecheckerboard="0"
     inkscape:deskcolor="#505050"
     inkscape:zoom="0.99414062"
     inkscape:cx="223.81139"
     inkscape:cy="256"
     inkscape:window-width="1366"
     inkscape:window-height="705"
     inkscape:window-x="-8"
     inkscape:window-y="-8"
     inkscape:window-maximized="1"
     inkscape:current-layer="svg1" />
  <!--! Font Awesome Free 6.5.1 by @fontawesome - https://fontawesome.com License - https://fontawesome.com/license/free (Icons: CC BY 4.0, Fonts: SIL OFL 1.1, Code: MIT License) Copyright 2023 Fonticons, Inc. -->
  <path
     d="M100.28 448H7.4V148.9h92.88zM53.79 108.1C24.09 108.1 0 83.5 0 53.8a53.79 53.79 0 0 1 107.58 0c0 29.7-24.1 54.3-53.79 54.3zM447.9 448h-92.68V302.4c0-34.7-.7-79.2-48.29-79.2-48.29 0-55.69 37.7-55.69 76.7V448h-92.78V148.9h89.08v40.8h1.3c12.4-23.5 42.69-48.3 87.88-48.3 94 0 111.28 61.9 111.28 142.3V448z"
     id="path1" />
  <path
     style="fill:#ffffff;fill-opacity:0.733333;stroke-width:1"
     d="M 8.0471513,298.24754 V 148.8723 H 53.815324 99.583497 V 298.24754 447.62279 H 53.815324 8.0471513 Z"
     id="path2" />
  <path
     style="fill:#ffffff;fill-opacity:0.733333;stroke-width:1"
     d="M 8.0471513,298.24754 V 148.8723 H 53.815324 99.583497 V 298.24754 447.62279 H 53.815324 8.0471513 Z"
     id="path3" />
  <path
     style="fill:#ffffff;fill-opacity:0.733333;stroke-width:1"
     d="M 8.0471513,298.24754 V 148.8723 H 53.815324 99.583497 V 298.24754 447.62279 H 53.815324 8.0471513 Z"
     id="path4" />
  <path
     style="fill:#ffffff;fill-opacity:0.733333;stroke-width:1"
     d="M 8.0471513,298.24754 V 148.8723 H 53.815324 99.583497 V 298.24754 447.62279 H 53.815324 8.0471513 Z"
     id="path5" />
  <path
     style="fill:#ffffff;fill-opacity:0.733333;stroke-width:1"
     d="M 8.0471513,298.24754 V 148.8723 H 53.815324 99.583497 V 298.24754 447.62279 H 53.815324 8.0471513 Z"
     id="path6" />
  <path
     style="fill:#ffffff;fill-opacity:0.733333;stroke-width:1"
     d="M 158.93124,298.24754 V 148.8723 h 44.25933 44.25933 v 20.62082 c 0,11.34146 0.35665,20.62083 0.79255,20.62083 0.43591,0 2.73206,-2.94998 5.10256,-6.55551 7.96466,-12.11426 21.40714,-23.68856 36.04346,-31.0343 29.31069,-14.71057 74.70408,-14.04085 105.92784,1.56283 9.0183,4.50678 11.89969,6.60629 19.71577,14.36574 16.77205,16.65054 25.11937,36.25816 30.20472,70.95004 1.47435,10.05791 1.74988,24.40164 2.11098,109.89391 l 0.41531,98.32613 h -45.83832 -45.83833 l -0.0355,-76.69941 c -0.0377,-81.40489 -0.62134,-97.96823 -3.94552,-111.96479 -6.36027,-26.78012 -24.6881,-38.90863 -53.79786,-35.60095 -29.47243,3.34889 -43.44266,20.98123 -46.78214,59.04549 -0.59846,6.8213 -1.04147,44.26027 -1.04746,88.52025 l -0.0104,76.69941 h -45.76817 -45.76817 z"
     id="path7" />
  <path
     style="fill:#ffffff;fill-opacity:0.733333;stroke-width:1"
     d="M 158.93124,298.24754 V 148.8723 h 44.25933 44.25933 v 20.62082 c 0,12.34507 0.3833,20.62083 0.95507,20.62083 0.52529,0 2.97521,-2.82908 5.44427,-6.28684 9.66524,-13.53553 25.8535,-26.61795 40.81584,-32.98499 12.08588,-5.14301 22.13284,-7.11444 39.3073,-7.71297 25.17488,-0.87733 41.72252,2.3255 61.07821,11.82181 22.00753,10.79735 37.70125,32.06573 44.97365,60.94903 6.11223,24.27554 6.11766,24.40304 7.01292,164.57938 l 0.42882,67.14342 h -45.62106 -45.62106 l -0.42594,-87.76424 c -0.45668,-94.09934 -0.53027,-95.50113 -5.74022,-109.33317 -4.82879,-12.8201 -14.41464,-22.1358 -26.61059,-25.86063 -8.25841,-2.52225 -26.74558,-2.5009 -35.21554,0.0407 -13.13033,3.94001 -22.24053,10.90478 -27.89445,21.32536 -3.78564,6.97721 -7.52601,20.55864 -8.79424,31.93229 -0.67329,6.03809 -1.0753,39.55487 -1.0753,89.65151 v 80.00821 h -45.76817 -45.76817 z"
     id="path8" />
  <path
     style="fill:#ffffff;fill-opacity:0.733333;stroke-width:1"
     d="M 158.93124,298.24754 V 148.8723 h 44.25933 44.25933 v 20.62082 c 0,12.13294 0.38745,20.62083 0.94128,20.62083 0.51771,0 3.64206,-3.30521 6.94302,-7.3449 15.22201,-18.62864 32.91707,-30.65867 52.97228,-36.01332 10.1501,-2.71003 40.09615,-3.81555 53.0184,-1.95729 16.24952,2.33674 36.40892,10.70303 47.43761,19.68694 17.54653,14.29331 29.5602,38.35087 34.39771,68.88201 1.88545,11.8997 3.37072,81.00752 3.42116,159.18271 l 0.0355,55.07269 h -44.60432 -44.60431 l -0.66091,-16.7579 c -0.3635,-9.21685 -0.67024,-44.41056 -0.68164,-78.20825 -0.024,-71.331 -0.76676,-87.62532 -4.50114,-98.74983 -7.7914,-23.2102 -22.82366,-32.65915 -49.79641,-31.30092 -16.10687,0.81107 -27.05624,5.4715 -36.2253,15.41876 -5.14069,5.57699 -8.29022,12.28765 -11.82282,25.19069 l -2.70627,9.88486 -0.31475,87.26129 -0.31475,87.2613 H 204.65772 158.9312 Z"
     id="path9" />
  <path
     style="fill:#ffffff;fill-opacity:0.733333;stroke-width:1"
     d="M 158.93124,298.24754 V 148.8723 h 44.25933 44.25933 v 20.62082 c 0,11.34146 0.33949,20.61824 0.75442,20.61508 0.41493,-0.003 5.68476,-5.24205 11.71073,-11.64197 12.16317,-12.91797 21.25699,-19.91354 33.30302,-25.61887 11.27872,-5.34191 18.26153,-6.88903 36.25577,-8.03287 28.1499,-1.78942 47.00878,1.68999 67.21101,12.40021 26.77247,14.19345 43.95246,46.24715 46.96074,87.61737 0.99245,13.6484 2.87677,127.96905 2.94049,178.39779 l 0.0308,24.39293 h -44.12772 -44.12773 l -0.62423,-3.7721 c -0.34334,-2.07466 -0.88145,-38.17368 -1.19582,-80.22004 -0.55941,-74.82058 -1.29707,-96.41324 -3.61883,-105.92925 -2.04151,-8.36739 -6.6194,-17.12171 -11.84005,-22.64178 -8.53874,-9.02845 -18.84965,-12.77201 -35.08881,-12.7396 -16.84468,0.0336 -28.31339,4.06017 -38.20345,13.41286 -6.61436,6.25499 -10.10145,12.8784 -14.21541,27.00087 l -3.10727,10.66666 v 87.11118 87.1112 h -45.76817 -45.76817 z"
     id="path10" />
  <path
     style="fill:#ffffff;fill-opacity:0.733333;stroke-width:1"
     d="M 158.93124,298.24754 V 148.8723 h 44.25933 44.25933 v 20.62082 c 0,11.34146 0.33298,20.62083 0.73996,20.62083 0.40697,0 5.95196,-5.33755 12.3222,-11.86122 6.37023,-6.52367 14.59532,-14.00196 18.27796,-16.61842 8.65806,-6.15141 22.21736,-12.47769 30.78983,-14.36543 9.6505,-2.12512 40.98196,-3.01816 51.57053,-1.46991 16.51193,2.41437 33.61778,9.33728 45.91442,18.58203 18.24246,13.7149 31.72642,40.98651 35.44066,71.67951 1.28115,10.58707 2.68966,69.44706 3.67253,153.47191 l 0.67951,58.09037 h -44.27659 -44.27658 l -0.59158,-13.32809 c -0.32535,-7.33046 -0.85151,-43.42947 -1.16921,-80.22004 -0.60636,-70.21579 -1.41033,-89.61526 -4.08798,-98.64002 -5.00377,-16.86475 -16.58545,-28.58356 -31.69074,-32.06595 -6.5159,-1.50218 -23.61266,-1.25246 -30.83517,0.45039 -8.70163,2.05159 -15.68357,5.80876 -22.13939,11.9138 -6.45488,6.10417 -9.91229,12.54083 -14.18808,26.41398 l -3.1346,10.17043 v 87.65275 87.65275 h -45.76817 -45.76817 z"
     id="path11" />
  <path
     style="fill:#ffffff;fill-opacity:0.733333;stroke-width:1"
     d="M 42.247544,106.10583 C 27.756044,102.55077 17.190465,94.951462 8.8952124,82.117093 -1.9411492,65.351135 -1.9343173,42.109598 8.9118328,25.57774 16.166946,14.519391 26.451699,6.5751659 38.223969,2.9362448 47.128717,0.18370178 60.530035,0.19280884 69.479235,2.9574842 86.530798,8.225223 101.61841,24.255246 105.53898,41.26962 c 1.33287,5.784331 1.33287,19.307076 0,25.091408 -3.28781,14.268339 -14.823936,28.552196 -28.479103,35.262402 -12.216259,6.00311 -22.969465,7.38769 -34.812333,4.4824 z"
     id="path12" />
  <path
     style="fill:#ffffff;fill-opacity:0.733333;stroke-width:1"
     d="M 40.80689,105.08343 C 20.853799,99.608078 4.9390819,81.665657 1.9320224,61.255496 -3.0925547,27.151605 27.094983,-3.044248 61.255496,1.9156804 77.935199,4.3374864 93.359607,15.841203 101.20128,31.707742 l 3.91463,7.92073 v 14.186852 14.186852 l -3.93913,7.994983 c -6.907194,14.019055 -19.40352,24.459031 -34.718879,29.005651 -6.547718,1.94381 -18.721824,1.98207 -25.651011,0.0807 z"
     id="path13" />
  <path
     style="fill:#ffffff;fill-opacity:0.733333;stroke-width:1"
     d="M 39.732809,104.2064 C 22.50839,98.735993 8.1385194,83.453072 3.5096546,65.681659 -1.8867157,44.963595 7.8583355,21.740052 27.025744,9.6401983 c 2.265829,-1.430355 7.63576,-3.7809517 11.93318,-5.2235479 6.77058,-2.2728088 9.021961,-2.561556 16.867362,-2.1632953 19.677899,0.9989206 36.346823,12.4573909 45.669104,31.3936339 3.02897,6.152713 3.11801,6.729431 3.13271,20.291773 l 0.0151,13.959077 -3.78723,7.535712 C 94.0618,88.952427 81.068879,99.853599 66.480604,104.2748 c -5.53265,1.67675 -21.380544,1.63622 -26.747795,-0.0684 z"
     id="path14" />
  <path
     style="fill:#ffffff;fill-opacity:0.733333;stroke-width:1"
     d="M 39.229862,103.70906 C 29.194954,100.48291 17.340944,91.03353 10.950185,81.166025 -2.089707,61.032083 0.41917679,36.059566 17.241915,18.54043 27.315338,8.0500062 39.322702,2.8741629 53.416413,2.9472056 73.743325,3.0525528 91.181443,14.134639 100.55801,32.906127 c 3.26957,6.54556 3.42842,7.39077 3.85718,20.524798 l 0.44718,13.698114 -3.88106,7.425658 c -5.461715,10.449925 -15.673762,20.504258 -26.029014,25.627023 -7.84738,3.88211 -8.08931,3.93069 -20.574226,4.13205 -6.94841,0.11207 -13.765103,-0.16005 -15.148208,-0.60471 z"
     id="path15" />
  <path
     style="fill:#ffffff;fill-opacity:0.733333;stroke-width:1"
     d="M 45.200985,103.59185 C 37.652211,103.13778 35.860627,102.64009 30.717308,99.568279 -0.48823978,80.931034 -6.1602053,42.176291 18.715148,17.561318 43.137277,-6.6051741 84.092283,0.82794434 99.87067,32.290619 c 3.59325,7.165081 3.75592,7.947825 4.36844,21.021758 l 0.63621,13.579568 -3.84252,7.041257 c -5.142143,9.422765 -16.979431,21.304075 -25.590757,25.685928 -7.427148,3.77929 -15.602415,4.85326 -30.241058,3.97272 z"
     id="path16" />
</svg>
