<?xml version="1.0" encoding="UTF-8" standalone="no"?>
<svg
   viewBox="0 0 512 512"
   version="1.1"
   id="svg1"
   sodipodi:docname="twitter.svg"
   inkscape:version="1.3.2 (091e20e, 2023-11-25, custom)"
   xmlns:inkscape="http://www.inkscape.org/namespaces/inkscape"
   xmlns:sodipodi="http://sodipodi.sourceforge.net/DTD/sodipodi-0.dtd"
   xmlns="http://www.w3.org/2000/svg"
   xmlns:svg="http://www.w3.org/2000/svg">
  <defs
     id="defs1" />
  <sodipodi:namedview
     id="namedview1"
     pagecolor="#505050"
     bordercolor="#eeeeee"
     borderopacity="1"
     inkscape:showpageshadow="0"
     inkscape:pageopacity="0"
     inkscape:pagecheckerboard="0"
     inkscape:deskcolor="#505050"
     inkscape:zoom="0.99414062"
     inkscape:cx="256"
     inkscape:cy="256"
     inkscape:window-width="1366"
     inkscape:window-height="705"
     inkscape:window-x="-8"
     inkscape:window-y="-8"
     inkscape:window-maximized="1"
     inkscape:current-layer="svg1" />
  <!--! Font Awesome Free 6.5.1 by @fontawesome - https://fontawesome.com License - https://fontawesome.com/license/free (Icons: CC BY 4.0, Fonts: SIL OFL 1.1, Code: MIT License) Copyright 2023 Fonticons, Inc. -->
  <path
     d="M459.37 151.716c.325 4.548.325 9.097.325 13.645 0 138.72-105.583 298.558-298.558 298.558-59.452 0-114.68-17.219-161.137-47.106 8.447.974 16.568 1.299 25.34 1.299 49.055 0 94.213-16.568 130.274-44.832-46.132-.975-84.792-31.188-98.112-72.772 6.498.974 12.995 1.624 19.818 1.624 9.421 0 18.843-1.3 27.614-3.573-48.081-9.747-84.143-51.98-84.143-102.985v-1.299c13.969 7.797 30.214 12.67 47.431 13.319-28.264-18.843-46.781-51.005-46.781-87.391 0-19.492 5.197-37.36 14.294-52.954 51.655 63.675 129.3 105.258 216.365 109.807-1.624-7.797-2.599-15.918-2.599-24.04 0-57.828 46.782-104.934 104.934-104.934 30.213 0 57.502 12.67 76.67 33.137 23.715-4.548 46.456-13.32 66.599-25.34-7.798 24.366-24.366 44.833-46.132 57.827 21.117-2.273 41.584-8.122 60.426-16.243-14.292 20.791-32.161 39.308-52.628 54.253z"
     id="path1" />
  <path
     style="fill:#ffffff;fill-opacity:0.733333;stroke-width:1"
     d="M 145.85462,463.12166 C 116.84023,460.6061 98.598808,457.51633 78.459725,451.70616 55.749881,445.15431 24.401087,431.55407 8.3529794,421.29131 l -5.2265883,-3.34239 22.8297319,-0.0671 c 24.830858,-0.0729 33.568417,-1.12348 54.094465,-6.50367 14.132144,-3.70426 27.066302,-8.63844 40.985732,-15.6354 9.74631,-4.89925 25.94947,-14.98012 32.82798,-20.42407 l 2.47725,-1.9606 -3.48315,-0.54639 c -1.91573,-0.30052 -6.19447,-0.83788 -9.50831,-1.19414 -13.34813,-1.43505 -31.68387,-8.36376 -43.889202,-16.58486 -14.655075,-9.87116 -30.022471,-27.8777 -36.968289,-43.3171 -4.996474,-11.10633 -5.068564,-10.6709 1.628171,-9.83439 9.48976,1.18537 17.984507,0.98532 29.261133,-0.68909 5.859614,-0.87008 11.071967,-1.84037 11.583007,-2.15621 0.51104,-0.31584 -2.81391,-1.65488 -7.38879,-2.97566 C 75.364213,289.64766 56.232456,276.64079 42.918362,258.90079 30.193851,241.94634 23.495192,224.37513 21.54291,202.83096 l -0.713201,-7.87044 4.925028,2.47898 c 6.195707,3.11856 18.319314,7.19063 25.545852,8.58032 8.712976,1.67552 17.104732,2.42266 17.051924,1.51818 -0.02655,-0.45474 -2.556716,-2.62538 -5.622591,-4.82365 C 51.766212,194.85324 40.183102,180.84122 33.188607,166.97839 18.634765,138.13321 18.489443,102.50162 32.81018,74.19177 l 2.922233,-5.776794 9.274571,10.470307 c 32.922442,37.167007 78.886116,67.277297 127.557236,83.561307 21.86848,7.3166 49.66764,13.00897 69.60646,14.25318 l 10.31214,0.64349 -0.75615,-4.93096 c -0.41588,-2.71203 -0.73461,-12.1734 -0.7083,-21.02527 0.0582,-19.57811 1.88495,-27.68658 9.97119,-44.25933 13.85884,-28.403693 38.88884,-48.243881 70.62332,-55.980028 11.51515,-2.807128 32.14988,-3.011104 44.0885,-0.435818 16.92184,3.65022 34.33333,12.404881 47.38304,23.824631 7.63058,6.677494 8.09846,6.924782 11.9647,6.323612 11.99202,-1.864671 34.70986,-9.939877 50.29469,-17.877578 5.53242,-2.817783 10.40242,-5.280045 10.82224,-5.47169 1.13659,-0.51885 -4.20136,11.518331 -8.17473,18.434161 -7.22246,12.57105 -19.59665,25.89275 -31.1584,33.54424 -5.21705,3.45261 -5.38902,3.69299 -2.85591,3.99196 4.85454,0.57295 25.03939,-3.88357 39.9169,-8.81307 8.022,-2.65799 14.76255,-4.674586 14.979,-4.48131 0.57161,0.51042 -7.23607,10.43482 -16.11501,20.48391 -7.56452,8.56146 -18.51229,18.74834 -28.6865,26.69274 l -5.1529,4.02357 -0.0815,16.81848 c -0.37019,76.43343 -33.51101,155.49915 -88.14402,210.28966 -46.71111,46.84576 -105.09427,74.97161 -171.52601,82.63195 -13.58476,1.56648 -44.7859,2.73378 -53.31237,1.99454 z"
     id="path2" />
  <path
     style="fill:#ffffff;fill-opacity:0.733333;stroke-width:1"
     d="M 138.81336,462.09141 C 136.87701,461.84346 129.8609,460.96066 123.222,460.12962 86.887382,455.58138 46.278752,442.23289 15.792839,424.81652 L 5.5324165,418.95481 29.67387,418.30879 c 20.336875,-0.54422 26.149773,-1.05774 36.884971,-3.25845 30.110104,-6.17256 60.427589,-19.5483 85.637289,-37.78219 5.55019,-4.01439 5.14531,-4.53723 -4.32973,-5.59122 -35.71581,-3.97296 -67.51331,-26.00694 -83.466772,-57.83803 -6.394103,-12.75781 -7.557195,-11.56778 11.305918,-11.56778 15.203852,0 29.913314,-1.68527 29.913314,-3.42719 0,-0.37657 -3.89076,-1.95175 -8.646137,-3.5004 -41.203747,-13.41857 -68.771677,-46.05074 -74.222649,-87.85738 -0.776919,-5.95864 -1.321823,-10.93501 -1.210898,-11.05861 0.110925,-0.12359 3.797219,1.32024 8.191764,3.20853 4.394545,1.88829 11.6113,4.37727 16.037233,5.53109 9.82271,2.56073 22.632613,3.83612 22.632613,2.25337 0,-0.60208 -2.631548,-3.11962 -5.847886,-5.59454 C 44.075811,187.6082 29.817118,164.525 24.945833,140.94446 23.297248,132.96412 23.028919,128.6259 23.414141,116.18075 23.929198,99.541053 25.898979,90.832261 32.373792,76.56835 l 3.335442,-7.347925 9.053045,10.268695 c 34.614004,39.26199 86.849211,71.88471 139.252221,86.96787 18.5299,5.33347 40.17264,9.22112 61.42361,11.03344 l 6.53831,0.5576 0.0132,-22.38354 c 0.0155,-26.48863 0.60424,-29.42245 9.53739,-47.53089 14.27486,-28.936626 37.09204,-47.509552 68.90916,-56.091267 11.57183,-3.121155 37.53091,-3.065401 49.2888,0.105862 12.06177,3.25322 30.54656,12.939935 41.58667,21.792947 6.54424,5.247785 10.23305,7.536265 12.14776,7.536265 7.34492,0 36.81672,-10.258546 53.24488,-18.533481 4.06771,-2.048918 7.6265,-3.494637 7.90842,-3.212708 1.07374,1.073734 -8.01442,17.936401 -13.81734,25.637454 -6.53067,8.666848 -16.1642,18.016688 -24.13047,23.419848 -2.73165,1.85276 -4.9783,3.70814 -4.99256,4.12307 -0.0476,1.38434 9.42652,0.73377 18.48831,-1.26956 4.92704,-1.08924 15.04941,-3.81995 22.49414,-6.06824 7.44474,-2.24829 13.73302,-3.89066 13.97397,-3.64972 0.80654,0.80655 -12.09812,16.16408 -21.7728,25.91127 -5.26408,5.30355 -13.23327,12.64006 -17.70931,16.30336 l -8.13825,6.66056 -0.66465,19.11301 c -1.63862,47.1213 -10.78278,84.6689 -30.76419,126.32349 -15.7177,32.76617 -35.02793,59.724 -60.54854,84.52812 -15.62653,15.18782 -24.84805,22.67197 -42.07773,34.15012 -36.63331,24.40456 -76.8919,39.19424 -123.27153,45.28591 -11.60255,1.52392 -55.43907,2.84282 -62.86837,1.8915 z"
     id="path3" />
  <path
     style="fill:#ffffff;fill-opacity:0.733333;stroke-width:1"
     d="M 126.23969,460.17787 C 83.761267,454.07146 45.541966,441.34043 12.216364,422.19615 l -4.3808847,-2.51666 15.9486647,-0.59234 c 35.889051,-1.33294 53.803824,-4.58681 78.454586,-14.24972 18.61309,-7.29619 47.54124,-23.41721 53.15822,-29.6239 2.20737,-2.43914 2.28649,-2.40599 -10.99426,-4.60512 -35.22195,-5.83228 -62.582887,-25.44799 -79.49726,-56.99345 -2.587506,-4.82573 -4.45905,-9.17128 -4.158989,-9.65679 0.300061,-0.48551 8.821663,-1.1683 18.936891,-1.51731 26.650008,-0.91951 31.281908,-2.50223 19.686875,-6.72701 -11.347775,-4.13469 -17.556623,-6.88891 -24.065658,-10.67543 -29.505286,-17.16418 -47.440905,-44.2982 -52.185226,-78.94875 -0.612921,-4.47652 -0.97317,-8.25506 -0.800555,-8.39675 0.172614,-0.1417 4.840368,1.45213 10.372784,3.54183 5.532417,2.0897 13.547911,4.51628 17.81221,5.39238 7.791456,1.60076 17.897024,2.14163 17.897024,0.95791 0,-0.34926 -5.138012,-5.66792 -11.417803,-11.81925 C 44.268935,183.3118 37.832244,174.28091 31.957334,160.65393 25.192991,144.96389 23.844419,137.08806 24.428351,116.68369 24.973808,97.62373 25.857727,93.247341 32.200314,78.203778 l 3.288658,-7.800152 14.083279,14.64148 c 7.745805,8.052815 18.329508,18.185744 23.519341,22.517614 38.223208,31.9043 85.347758,54.89786 132.002508,64.40819 14.83193,3.02341 36.66244,6.07231 43.47852,6.07231 h 3.69753 l 0.459,-23.88998 c 0.53145,-27.65942 0.76448,-28.74769 9.99521,-46.67688 11.38306,-22.109775 25.63222,-36.379285 46.58802,-46.654562 17.9596,-8.806149 23.64812,-10.032754 46.27112,-9.977348 18.21377,0.04461 19.48815,0.177563 27.11589,2.829 11.48925,3.99371 25.60508,11.580135 37.70687,20.265212 8.36376,6.002409 11.23431,7.538745 14.08571,7.538745 6.92867,0 29.57902,-7.589458 48.3054,-16.185703 5.79161,-2.658603 10.68725,-4.676756 10.87923,-4.484786 0.19197,0.191969 -1.0964,3.223918 -2.86304,6.73766 -7.97327,15.858389 -18.18312,28.316012 -31.67825,38.652452 -4.11892,3.15484 -7.48894,6.12597 -7.48894,6.60252 0,0.47656 2.60275,0.86588 5.78389,0.86516 5.99705,-0.001 19.36488,-2.92064 37.32503,-8.1511 5.72956,-1.66859 10.58339,-2.86779 10.78631,-2.66488 0.20291,0.20291 -4.15066,5.6363 -9.6746,12.07419 -8.97923,10.46488 -22.88752,23.97942 -33.38568,32.44054 l -3.7442,3.01768 -1.05254,21.12377 c -1.68037,33.72336 -6.37381,60.6081 -15.10034,86.49698 -11.31956,33.58156 -30.71955,69.4999 -51.89024,96.07277 -9.08103,11.39826 -36.01998,38.19757 -46.67828,46.43631 -40.66073,31.43026 -85.63516,50.74796 -135.3865,58.15205 -18.79066,2.79645 -67.27313,3.68788 -82.38953,1.51485 z"
     id="path4" />
  <path
     style="fill:#ffffff;fill-opacity:0.733333;stroke-width:1"
     d="m 122.21611,459.1809 c -24.094512,-3.8785 -46.181536,-9.58335 -66.891945,-17.27749 -15.786501,-5.86486 -44.259332,-19.66557 -44.259332,-21.4524 0,-0.57788 3.680809,-0.99428 8.801572,-0.99569 40.493049,-0.0113 71.568906,-7.39907 105.369825,-25.05012 20.19173,-10.54426 32.99607,-19.32549 31.01266,-21.26851 -0.46105,-0.45167 -6.60228,-1.9843 -13.64718,-3.40585 -13.29609,-2.68293 -21.60153,-5.3978 -30.98311,-10.1277 -19.31312,-9.73706 -37.954354,-28.87393 -47.920588,-49.1947 -1.501501,-3.0615 -2.515994,-5.78037 -2.254428,-6.04194 0.261566,-0.26157 9.237234,-0.98754 19.945932,-1.61327 28.969984,-1.69277 30.402534,-2.80176 12.393826,-9.5945 C 66.909849,283.02226 45.888061,264.60572 34.213043,240.97101 28.773192,229.95866 24.494923,215.60554 23.493511,205.00817 l -0.636194,-6.7325 13.878003,4.54488 c 10.498146,3.43802 16.043988,4.6852 22.771734,5.12108 4.891553,0.3169 8.893732,0.21854 8.893732,-0.21859 0,-0.43713 -5.098408,-6.04912 -11.329794,-12.4711 -15.83868,-16.32309 -22.393833,-26.69415 -28.996928,-45.87669 -2.274277,-6.60698 -2.423769,-8.40616 -2.423769,-29.17093 0,-24.082445 0.318895,-26.046922 6.744903,-41.550363 l 3.046484,-7.349973 18.742813,18.460447 c 27.064347,26.656619 46.015015,40.396859 78.090555,56.619819 28.23954,14.28281 54.21086,22.83902 85.50926,28.17089 8.29408,1.41295 19.42025,2.8397 24.72484,3.17057 l 9.6447,0.60159 0.66571,-13.88066 c 0.36614,-7.63435 0.66571,-17.34715 0.66571,-21.58401 0,-11.98956 1.63533,-18.65149 7.53738,-30.70546 7.25904,-14.82538 12.56785,-22.638814 21.61378,-31.810869 11.08015,-11.234622 28.05608,-21.404517 44.34551,-26.566374 8.1065,-2.568821 42.36332,-3.322076 50.95705,-1.120466 9.69256,2.483119 24.32301,9.821722 39.61143,19.869011 l 14.0345,9.223232 5.75567,-0.560613 c 7.21395,-0.70265 23.63999,-6.169291 41.38641,-13.773539 7.51194,-3.218824 13.80166,-5.717353 13.97717,-5.552288 0.54777,0.515176 -4.89907,10.741358 -9.63249,18.084562 -5.17904,8.034509 -14.7731,18.306699 -24.63553,26.376794 -3.73438,3.05572 -6.78978,6.02416 -6.78978,6.59652 0,2.25981 17.48793,-0.13719 34.61683,-4.7448 9.35754,-2.51715 17.22166,-4.36867 17.47583,-4.11449 1.37381,1.3738 -24.98326,29.0391 -39.4141,41.3704 l -5.93046,5.06766 -0.85729,16.53686 c -2.86,55.1692 -11.628,90.03886 -33.49839,133.22056 -9.34531,18.45172 -17.78346,32.24586 -29.11364,47.59307 -9.88673,13.39199 -41.59034,45.22034 -55.06128,55.27791 -38.90833,29.04944 -83.42226,47.82298 -130.63794,55.09594 -15.20087,2.3415 -74.36185,2.99059 -87.00982,0.95465 z"
     id="path5" />
  <path
     style="fill:#ffffff;fill-opacity:0.733333;stroke-width:1"
     d="M 112.15717,457.2721 C 94.508012,453.81335 80.849102,450.20164 64.204191,444.59228 42.915696,437.41804 11.206528,422.67575 12.513923,420.56033 c 0.270535,-0.43773 8.316067,-1.0733 17.878959,-1.41237 35.92437,-1.27377 60.500173,-7.44704 91.694548,-23.033 20.51892,-10.25209 36.31581,-20.84806 34.20694,-22.94477 -0.48607,-0.48326 -6.17741,-2.02197 -12.64741,-3.41936 -25.9659,-5.60811 -41.67815,-13.56189 -57.407283,-29.06044 -11.977332,-11.80174 -26.74682,-34.33444 -23.598226,-36.00204 0.678047,-0.35911 9.500737,-1.17693 19.605979,-1.81739 17.657141,-1.11906 23.37143,-2.07839 23.37143,-3.92363 0,-0.88378 -3.52955,-2.58835 -17.793411,-8.5932 -27.893504,-11.74269 -49.643863,-35.1238 -59.094406,-63.52505 -2.938515,-8.83098 -6.239662,-26.34731 -5.167501,-27.41947 0.37188,-0.37188 4.162097,0.55225 8.422706,2.05363 12.213034,4.30369 23.118271,6.7568 30.037133,6.7568 3.507572,0 6.377405,-0.2631 6.377405,-0.58468 0,-0.32157 -4.866012,-5.7855 -10.81336,-12.14204 -12.80843,-13.68971 -18.262985,-21.14851 -23.427339,-32.03556 -7.649944,-16.12696 -8.008656,-18.03326 -7.991132,-42.46729 0.01731,-24.135323 0.628354,-28.317114 6.06007,-41.473089 l 3.349469,-8.112633 17.668513,17.430561 c 9.717683,9.58681 21.96871,20.855871 27.224506,25.042371 27.225197,21.68618 66.487987,42.21456 99.493417,52.01974 20.92418,6.21609 44.85972,10.77447 62.04297,11.81568 l 10.14933,0.615 0.65881,-9.94991 c 0.36235,-5.47244 0.66901,-14.92907 0.68149,-21.01473 0.0296,-14.46107 1.84773,-22.54576 7.93663,-35.29233 11.51329,-24.102016 26.66656,-39.819976 49.38706,-51.227456 11.66294,-5.855714 17.52914,-7.489544 31.15886,-8.678238 17.7398,-1.547149 33.37386,-0.539752 42.00673,2.70675 9.27506,3.487998 23.032,10.9506 36.12211,19.594828 l 10.91662,7.208936 6.08212,-0.469955 c 6.97475,-0.538925 24.87868,-6.394157 42.10265,-13.769082 6.51439,-2.78932 12.03052,-5.071491 12.25808,-5.071491 2.36395,0 -7.19874,16.360653 -15.53346,26.575931 -3.12374,3.828549 -9.86656,10.57145 -14.98405,14.984227 -5.11748,4.41277 -9.30451,8.4734 -9.30451,9.02362 0,2.07357 16.78025,-0.0889 33.48746,-4.31559 9.28962,-2.35012 17.15689,-4.00628 17.48282,-3.68035 0.99182,0.99182 -8.92129,11.73947 -27.38067,29.68567 l -17.55425,17.06625 v 6.42964 c 0,16.15363 -3.42217,48.19667 -7.17535,67.18542 -8.65323,43.77994 -34.18986,97.16463 -62.31158,130.26326 -8.17449,9.62118 -34.95923,36.22669 -44.29757,44.00115 -27.14206,22.5966 -70.59986,43.71662 -110.0269,53.47187 -22.64205,5.60222 -25.50737,5.8614 -68.90373,6.23262 -39.42575,0.33725 -41.12772,0.27224 -52.80943,-2.01704 z"
     id="path6" />
</svg>
