<?xml version="1.0" encoding="UTF-8" standalone="no"?>
<svg
   viewBox="0 0 448 512"
   version="1.1"
   id="svg1"
   sodipodi:docname="whatsapp.svg"
   inkscape:version="1.3.2 (091e20e, 2023-11-25, custom)"
   xmlns:inkscape="http://www.inkscape.org/namespaces/inkscape"
   xmlns:sodipodi="http://sodipodi.sourceforge.net/DTD/sodipodi-0.dtd"
   xmlns="http://www.w3.org/2000/svg"
   xmlns:svg="http://www.w3.org/2000/svg">
  <defs
     id="defs1" />
  <sodipodi:namedview
     id="namedview1"
     pagecolor="#505050"
     bordercolor="#eeeeee"
     borderopacity="1"
     inkscape:showpageshadow="0"
     inkscape:pageopacity="0"
     inkscape:pagecheckerboard="0"
     inkscape:deskcolor="#505050"
     inkscape:zoom="0.99414062"
     inkscape:cx="223.81139"
     inkscape:cy="256"
     inkscape:window-width="1366"
     inkscape:window-height="705"
     inkscape:window-x="-8"
     inkscape:window-y="-8"
     inkscape:window-maximized="1"
     inkscape:current-layer="svg1" />
  <!--! Font Awesome Free 6.5.1 by @fontawesome - https://fontawesome.com License - https://fontawesome.com/license/free (Icons: CC BY 4.0, Fonts: SIL OFL 1.1, Code: MIT License) Copyright 2023 Fonticons, Inc. -->
  <path
     d="M380.9 97.1C339 55.1 283.2 32 223.9 32c-122.4 0-222 99.6-222 222 0 39.1 10.2 77.3 29.6 111L0 480l117.7-30.9c32.4 17.7 68.9 27 106.1 27h.1c122.3 0 224.1-99.6 224.1-222 0-59.3-25.2-115-67.1-157zm-157 341.6c-33.2 0-65.7-8.9-94-25.7l-6.7-4-69.8 18.3L72 359.2l-4.4-7c-18.5-29.4-28.2-63.3-28.2-98.2 0-101.7 82.8-184.5 184.6-184.5 49.3 0 95.6 19.2 130.4 54.1 34.8 34.9 56.2 81.2 56.1 130.5 0 101.8-84.9 184.6-186.6 184.6zm101.2-138.2c-5.5-2.8-32.8-16.2-37.9-18-5.1-1.9-8.8-2.8-12.5 2.8-3.7 5.6-14.3 18-17.6 21.8-3.2 3.7-6.5 4.2-12 1.4-32.6-16.3-54-29.1-75.5-66-5.7-9.8 5.7-9.1 16.3-30.3 1.8-3.7.9-6.9-.5-9.7-1.4-2.8-12.5-30.1-17.1-41.2-4.5-10.8-9.1-9.3-12.5-9.5-3.2-.2-6.9-.2-10.6-.2-3.7 0-9.7 1.4-14.8 6.9-5.1 5.6-19.4 19-19.4 46.3 0 27.3 19.9 53.7 22.6 57.4 2.8 3.7 39.1 59.7 94.8 83.8 35.2 15.2 49 16.5 66.6 13.9 10.7-1.6 32.8-13.4 37.4-26.4 4.6-13 4.6-24.1 3.2-26.4-1.3-2.5-5-3.9-10.5-6.6z"
     id="path1" />
  <path
     style="fill:#ffffff;fill-opacity:0.733333;stroke-width:1"
     d="m 1.0060944,478.55403 c 1.102e-4,-0.13831 6.9856477,-25.75924 15.5234166,-56.9354 l 15.523216,-56.68391 -4.869594,-9.20214 C 16.526395,335.59441 7.9399513,308.55711 4.4389052,284.11474 2.1768068,268.32203 2.200434,239.04885 4.4875776,223.81139 11.232018,178.87847 31.02198,136.78784 60.174753,105.37217 96.724671,65.985171 140.45191,42.802987 193.63458,34.617877 c 15.09067,-2.322539 46.28134,-2.321418 61.35953,0.0022 48.69627,7.504337 91.28868,28.880372 125.30185,62.885766 51.18024,51.168557 75.19433,121.097187 64.74591,188.539007 -15.05872,97.20003 -91.44469,172.31639 -190.55071,187.38359 -15.78246,2.39943 -45.60906,2.39665 -61.35953,-0.006 -23.49547,-3.5837 -43.64753,-9.66215 -64.26299,-19.38362 l -11.45356,-5.40075 -44.373552,11.6367 c -24.405453,6.40018 -50.157527,13.18787 -57.226831,15.08372 -11.9950922,3.21688 -14.8091037,3.82412 -14.8086026,3.19556 z M 236.82587,438.56517 c 66.88667,-4.89164 124.80929,-43.61865 154.96003,-103.60613 8.74141,-17.39179 14.22868,-34.79966 17.21533,-54.61408 2.08847,-13.85559 2.02601,-39.46818 -0.12907,-52.92966 C 399.32186,167.76045 359.06901,113.88922 304.33498,87.510983 285.89451,78.623874 270.33329,73.898824 249.46169,70.849104 232.51999,68.373616 203.16001,69.29567 186.78336,72.817526 133.07407,84.367905 88.540158,117.22268 61.90295,164.94772 c -10.648746,19.07902 -17.812128,40.80097 -21.236304,64.39609 -2.301957,15.8622 -1.570736,44.20071 1.54291,59.79564 4.325986,21.66701 13.057239,44.12465 24.009239,61.75412 l 5.210089,8.3867 -9.187371,33.6479 c -5.053052,18.50635 -8.941252,33.89403 -8.640441,34.19484 0.30081,0.30081 16.072575,-3.53783 35.048366,-8.5303 l 34.501442,-9.07724 5.73414,3.48331 c 22.62129,13.74171 53.20792,23.46926 80.34091,25.55105 13.76601,1.0562 13.37057,1.05598 27.59994,0.0153 z"
     id="path2" />
  <path
     style="fill:#ffffff;fill-opacity:0.733333;stroke-width:1"
     d="m 2.2509433,476.03929 c 0.2605862,-0.96817 7.1762298,-26.32532 15.3680977,-56.34922 l 14.894303,-54.5889 -6.637179,-13.81188 C 15.794511,330.3095 8.4855396,306.92063 4.8999744,284.16503 2.9262436,271.63884 3.2659564,233.197 5.4599903,220.79371 14.410934,170.19235 35.934883,129.22037 71.513709,95.056974 99.894023,67.805709 131.86367,49.957813 169.88278,40.139853 c 16.36749,-4.226702 27.59782,-5.850893 45.37852,-6.562885 37.51251,-1.502112 71.22244,5.616577 105.11591,22.197833 24.17787,11.828219 41.78096,24.512968 60.98681,43.94695 32.61358,33.000969 53.77235,73.398759 62.35903,119.060179 2.67101,14.20362 3.63971,43.17027 1.93612,57.89562 -8.72373,75.40594 -54.16601,140.12854 -122.33139,174.23431 -61.49431,30.76797 -130.03392,31.90037 -192.79048,3.18523 -6.57312,-3.00763 -12.7083,-5.46841 -13.63373,-5.46841 -0.92543,0 -26.637766,6.56346 -57.138528,14.58547 -30.500764,8.022 -56.0256236,14.58546 -56.7219123,14.58546 -0.7155914,0 -1.0599966,-0.76531 -0.7921864,-1.76032 z M 242.2086,438.51164 c 44.55466,-4.85328 83.31655,-23.05222 113.75034,-53.40643 39.51554,-39.41226 58.49623,-89.88772 54.4722,-144.85837 -2.03091,-27.74349 -10.01655,-52.93903 -24.67061,-77.83841 -23.2369,-39.48285 -60.97321,-70.299551 -103.39507,-84.435794 -21.10194,-7.031802 -28.32412,-8.027964 -58.05112,-8.007044 -23.89442,0.01682 -27.75047,0.255272 -37.21807,2.301571 -19.83299,4.286641 -44.89631,14.151284 -59.85069,23.556567 -39.025792,24.54455 -67.732581,61.58871 -80.381181,103.72647 -6.511807,21.69354 -7.136168,26.57781 -7.087446,55.44391 0.03906,23.14328 0.298241,27.29418 2.251967,36.06686 4.611611,20.70715 13.287452,42.82708 23.297412,59.39907 2.797433,4.63129 5.086242,8.88027 5.086242,9.44218 0,0.56191 -3.104634,12.49433 -6.899184,26.51649 -8.626097,31.87638 -10.595634,40.02098 -9.856623,40.76 0.676719,0.67672 0.785638,0.65104 39.801942,-9.3789 l 29.584451,-7.60531 3.61005,2.15057 c 35.09354,20.90578 76.91417,30.37572 115.55539,26.16657 z"
     id="path3" />
  <path
     style="fill:#ffffff;fill-opacity:0.733333;stroke-width:1"
     d="m 3.0176817,475.80346 c 0,-0.54464 6.7584427,-25.66472 15.0187613,-55.82239 L 33.055205,365.14892 27.228058,352.82201 C 17.506029,332.25574 10.571029,311.46515 6.339713,290.20039 3.8165301,277.51997 3.819569,232.20629 6.3445026,218.78193 16.533645,164.60911 41.973507,120.39424 82.986248,85.57741 112.62393,60.417182 147.3843,44.252603 188.36593,36.572808 c 12.94602,-2.426034 48.66001,-2.962329 63.85698,-0.958899 31.66311,4.174178 65.49182,16.873212 92.7987,34.835917 43.46814,28.593723 77.53832,74.605024 92.33238,124.693594 6.92059,23.43116 7.64235,28.9936 7.7008,59.34774 0.0512,26.60013 -0.0546,28.16409 -2.75827,40.7387 -15.3797,71.53207 -61.86425,129.56654 -127.32319,158.95894 -58.69874,26.35694 -118.2505,26.84425 -179.28138,1.46708 -9.29502,-3.86496 -17.94571,-7.0272 -19.22374,-7.0272 -1.27803,0 -26.761412,6.33377 -56.629741,14.07504 -29.868329,7.74127 -54.8718678,14.07841 -55.5634199,14.08252 -0.691552,0.004 -1.2573674,-0.43814 -1.2573674,-0.98278 z M 260.52652,436.10127 c 51.13578,-10.80792 91.80415,-38.04419 120.22669,-80.51777 27.43458,-40.99723 36.9606,-91.4492 26.47731,-140.22983 C 399.37905,178.81942 376.52399,140.6019 347.33497,115.1982 327.58641,98.010707 304.64822,84.928496 280.39112,77.018502 c -20.52521,-6.693062 -23.7044,-7.095739 -56.07678,-7.102706 -24.0078,-0.0052 -30.05785,0.292986 -37.21807,1.834136 -22.77074,4.901125 -52.88203,17.980755 -70.34555,30.556438 -18.328492,13.19855 -37.826072,33.75489 -49.892039,52.60129 -10.525828,16.44078 -20.915761,42.08865 -25.298703,62.4506 -2.700819,12.54727 -2.678198,62.12067 0.0337,73.84803 4.620356,19.98032 12.605883,40.65126 22.368876,57.90295 2.99427,5.29102 5.444128,10.43937 5.444128,11.44076 0,1.0014 -3.38123,14.55214 -7.513844,30.11277 -4.132613,15.56063 -7.811684,30.21582 -8.175712,32.56709 -0.579175,3.74092 -0.425873,4.27876 1.227006,4.3048 1.038881,0.0164 16.666628,-3.71786 34.728327,-8.29827 l 32.839441,-8.328 12.02705,6.2824 c 14.30979,7.47479 29.05012,13.15129 43.50427,16.75346 19.11612,4.764 26.95241,5.58852 49.2888,5.18609 17.5021,-0.31534 22.52249,-0.77346 33.1945,-3.02907 z"
     id="path4" />
  <path
     style="fill:#ffffff;fill-opacity:0.733333;stroke-width:1"
     d="M 4.38152,472.97304 C 4.7112636,470.9251 11.349562,445.93792 19.133294,417.44597 26.917026,388.95403 33.078071,364.96346 32.824505,364.1336 32.570938,363.30373 29.55823,356.55795 26.129598,349.14296 19.049088,333.83018 11.353029,311.30008 7.8852147,295.73281 5.6901359,285.87894 5.535124,283.0806 5.5728048,253.98821 5.6120848,223.66109 5.688948,222.4743 8.3741239,210.73477 18.78635,165.21275 39.538606,127.82099 71.746261,96.549767 102.5932,66.599705 137.73801,48.039565 182.56974,38.023374 c 9.18253,-2.051536 12.73201,-2.250252 40.73871,-2.280741 25.80352,-0.02809 32.03871,0.254525 39.22986,1.778131 63.52778,13.459782 112.05377,46.117264 146.87068,98.842426 7.82663,11.8523 19.29369,34.52219 23.62695,46.7095 4.77124,13.41909 9.39876,31.81082 10.59683,42.11629 0.73649,6.33496 1.00206,19.85874 0.71736,36.52929 -0.43624,25.54527 -0.56044,26.89218 -3.55388,38.54106 -5.61762,21.86083 -13.49278,42.22755 -22.53557,58.2814 -31.15333,55.30714 -80.25986,92.86118 -142.1428,108.70321 -20.19743,5.17053 -36.72099,6.92277 -58.34185,6.18683 -30.28251,-1.03078 -49.75289,-5.53014 -87.30599,-20.17532 -6.52517,-2.54472 -12.97041,-4.62677 -14.32275,-4.62677 -2.23256,0 -23.586715,5.29727 -89.360423,22.16742 l -23.0048808,5.90047 z m 242.56543,-34.44243 c 23.6801,-2.69032 52.68431,-12.59506 73.61302,-25.13836 49.61611,-29.73664 83.35137,-81.50339 89.91682,-137.97736 1.70328,-14.65104 0.70914,-41.6573 -2.0432,-55.50493 C 397.87752,166.80018 363.45571,119.7614 314.73995,91.873828 303.82933,85.62799 292.13204,80.570302 277.67359,75.847026 c -16.86157,-5.508327 -20.75398,-5.937399 -53.8622,-5.937399 -33.77181,0 -36.18757,0.32269 -57.83312,7.725181 -21.85113,7.472793 -42.87365,18.747624 -57.84467,31.023332 -8.643737,7.08755 -26.610961,25.51522 -32.834422,33.67585 -13.825053,18.12837 -25.479955,42.58711 -32.28585,67.75444 l -3.167004,11.71118 -0.05405,32.1886 c -0.05159,30.72514 0.05421,32.60021 2.326955,41.24165 4.141797,15.74793 10.300629,31.66738 18.808918,48.61762 4.53566,9.03596 8.077269,17.1837 7.870241,18.10609 -0.207032,0.9224 -3.264765,12.99338 -6.794967,26.82443 -10.376075,40.65262 -10.065182,38.72691 -6.252228,38.72691 1.34135,0 16.912569,-3.63621 34.602709,-8.08049 l 32.163898,-8.08049 13.93167,6.98611 c 20.13806,10.09832 39.90877,16.63241 59.62788,19.70658 10.46547,1.63155 38.46367,1.90343 50.8696,0.49399 z"
     id="path5" />
  <path
     style="fill:#ffffff;fill-opacity:0.733333;stroke-width:1"
     d="m 4.0235756,475.17055 c 0,-0.33949 4.5641992,-17.65344 10.1426644,-38.47544 5.578466,-20.82199 12.182145,-45.4936 14.674843,-54.82578 l 4.532178,-16.96762 -6.540723,-14.7506 C 18.941494,332.35528 11.896881,311.93708 8.5357417,297.11943 6.1840835,286.75211 6.0531095,284.52117 6.0444761,254.68459 6.03397,218.37669 6.6923464,213.52196 15.097181,187.93179 33.137647,133.00404 70.485874,88.054921 120.91369,60.580122 c 13.96946,-7.611042 36.06028,-15.988272 55.62069,-21.09235 9.67035,-2.523376 11.35586,-2.640167 43.63124,-3.02327 39.23896,-0.465759 43.3282,0.07206 71.33904,9.382621 34.2057,11.369681 61.94839,28.168868 86.25014,52.227533 18.69645,18.509434 31.58371,36.377904 44.3355,61.472104 13.8788,27.31206 20.9522,52.95627 22.02657,79.85599 0.94042,23.54608 -0.76083,50.59299 -3.9267,62.4277 -20.01936,74.83675 -67.76916,129.3986 -136.87229,156.39868 -30.76506,12.02056 -59.79255,16.59057 -92.28017,14.52831 -26.16728,-1.66105 -42.6497,-5.58293 -76.53558,-18.21114 -8.73345,-3.25469 -17.05591,-5.91762 -18.49435,-5.91762 -1.43844,0 -26.667751,6.11081 -56.065146,13.57957 -29.397394,7.46876 -54.0053887,13.57957 -54.6844327,13.57957 -0.6790441,0 -1.2346257,-0.27777 -1.2346257,-0.61727 z M 262.03536,436.13054 c 17.66542,-3.99483 31.39506,-8.85751 47.27702,-16.74426 17.07408,-8.47875 29.59862,-17.27227 43.52513,-30.55919 18.0162,-17.18876 30.27265,-33.8858 40.43404,-55.08355 12.21409,-25.4799 16.94853,-44.55887 17.84425,-71.90916 1.12612,-34.38514 -4.49297,-60.6357 -19.09785,-89.21898 -25.40911,-49.72829 -69.41413,-85.085982 -124.45017,-99.99474 -9.36575,-2.537095 -10.22686,-2.588985 -43.25344,-2.606397 l -33.69744,-0.01776 -10.01187,2.772614 c -20.91654,5.792471 -44.88668,16.587395 -61.952,27.899993 -12.72302,8.4341 -38.276482,33.87337 -47.409157,47.19729 -12.607213,18.39304 -20.911832,36.51462 -28.001445,61.10222 l -3.989746,13.83688 0.006,26.15324 c 0.0033,14.38429 0.446438,30.33356 0.984727,35.44283 1.36904,12.9945 8.82374,34.93499 19.482152,57.33939 4.771348,10.02959 8.675189,18.88503 8.675189,19.67876 0,0.79374 -3.390347,14.74283 -7.534106,30.99797 -4.143758,16.25514 -7.53865,30.86113 -7.544205,32.45773 -0.01,2.85655 0.06119,2.89317 4.450851,2.2915 2.453521,-0.33629 18.11527,-4.0059 34.803886,-8.1547 l 30.342934,-7.54326 7.19219,3.92451 c 14.49826,7.91115 32.30397,14.90903 48.93678,19.23281 16.17819,4.2056 23.37107,4.89112 47.77996,4.55372 20.83722,-0.28804 24.33468,-0.59097 35.20628,-3.04946 z"
     id="path6" />
  <path
     style="fill:#ffffff;fill-opacity:0.733333;stroke-width:1"
     d="m 267.56778,359.00377 c -10.3716,-2.02971 -33.61285,-10.66127 -47.77996,-17.745 -41.46992,-20.73548 -91.57997,-76.04039 -104.63106,-115.47806 -7.5786,-22.90096 -2.54341,-47.10654 13.29055,-63.89138 8.25736,-8.75323 12.10316,-10.34263 23.84407,-9.85434 7.62005,0.31691 8.89936,0.65068 11.16,2.91165 2.97143,2.97185 22.63899,49.26043 22.63899,53.28197 0,3.46048 -5.5879,12.61232 -12.52578,20.51467 -6.97669,7.94656 -7.08367,9.82244 -1.11248,19.50742 9.97988,16.18689 23.0669,30.42122 37.33759,40.61091 9.12461,6.51523 32.29034,19.42842 37.91464,21.13461 6.34449,1.92468 6.37432,1.89858 27.63972,-24.18393 3.30657,-4.05557 3.8646,-4.34962 7.36379,-3.88028 5.05921,0.67858 48.12572,21.38466 50.99745,24.51921 2.75686,3.00915 2.92234,7.56233 0.64515,17.75099 -2.2719,10.16502 -5.83469,16.22358 -12.90428,21.94385 -6.68926,5.41253 -18.12302,11.35322 -24.82463,12.89824 -5.29232,1.2201 -22.73634,1.19577 -29.05376,-0.0405 z"
     id="path7" />
  <path
     style="fill:#ffffff;fill-opacity:0.733333;stroke-width:1"
     d="m 264.04715,357.64376 c -16.27003,-4.58682 -39.71952,-14.16969 -51.34154,-20.98122 -40.04687,-23.47103 -84.27217,-74.19245 -97.08218,-111.3423 -3.09066,-8.96312 -3.85089,-26.10855 -1.5619,-35.22543 2.42376,-9.65365 7.79368,-19.80722 14.24676,-26.9381 7.83363,-8.65644 11.28904,-10.26084 22.09891,-10.26084 4.76096,0 9.58535,0.49722 10.72086,1.10492 3.34263,1.78893 22.19441,43.75099 23.6301,52.59812 0.69842,4.30385 -2.36148,10.20268 -10.76397,20.75063 -4.72382,5.92996 -5.99727,8.26935 -6.00284,11.02748 -0.0168,8.31532 19.57785,33.51556 36.80581,47.33515 12.22027,9.80262 40.35422,25.10905 46.15165,25.10905 3.50997,0 9.12126,-5.29345 21.05926,-19.86641 5.19467,-6.34124 7.3873,-8.29862 9.29601,-8.29862 5.70319,0 50.80254,21.6903 52.77932,25.38394 1.62852,3.04292 0.48971,15.19293 -2.06011,21.97944 -3.96947,10.56498 -11.43011,17.65915 -26.12093,24.83784 l -7.65482,3.74054 -14.58546,0.23186 c -10.13457,0.1611 -16.12025,-0.20084 -19.61493,-1.18605 z"
     id="path8" />
  <path
     style="fill:#ffffff;fill-opacity:0.733333;stroke-width:1"
     d="m 259.52063,355.67844 c -38.76655,-11.88038 -67.58629,-29.96456 -96.44469,-60.51836 -23.73631,-25.13079 -43.1005,-54.7916 -47.8675,-73.32034 -2.08613,-8.10852 -2.05147,-26.61098 0.0633,-33.80648 3.82578,-13.01703 14.99465,-28.73811 23.17421,-32.61957 5.35039,-2.53892 21.32007,-2.42418 23.33251,0.16765 2.48959,3.20635 14.88262,29.61286 18.66457,39.76963 1.99954,5.36994 3.63553,11.0348 3.63553,12.58857 0,3.6447 -2.57834,8.37896 -10.05509,18.46286 -8.79684,11.86429 -8.30293,15.18558 4.86798,32.73481 14.58684,19.43584 31.6466,33.34632 56.11768,45.75818 17.61629,8.93508 18.45585,8.70128 33.82863,-9.42047 5.461,-6.43754 10.2276,-11.12969 11.67541,-11.49307 1.34569,-0.33775 4.07581,-0.0434 6.06695,0.65414 6.16824,2.16084 32.4209,14.60676 39.83242,18.88384 l 7.04126,4.06342 -0.0408,8.91171 c -0.0349,7.60617 -0.46172,9.83606 -2.91376,15.22126 -3.87485,8.50998 -12.49092,16.46215 -23.95262,22.10696 l -8.68042,4.27505 -15.40067,-0.0539 c -13.10803,-0.0459 -16.52378,-0.39807 -22.94489,-2.36588 z"
     id="path9" />
  <path
     style="fill:#ffffff;fill-opacity:0.733333;stroke-width:1"
     d="m 270.58546,357.05565 c -13.87149,-1.21068 -40.1772,-11.31124 -58.84479,-22.59455 -36.88019,-22.29158 -77.08601,-66.9389 -92.60574,-102.83582 -4.44994,-10.29262 -6.11399,-23.40478 -4.57107,-36.01852 1.48584,-12.14718 6.98368,-23.29903 16.13252,-32.7233 7.29822,-7.51794 10.58608,-8.96648 20.3737,-8.97608 9.78532,-0.01 10.26513,0.41611 17.46478,15.49571 7.41642,15.5336 12.19968,27.13065 14.12022,34.23455 1.67019,6.1779 0.55106,9.09723 -8.48372,22.13048 -7.68114,11.08053 -8.03101,14.21146 -2.59658,23.23622 5.1134,8.49165 17.64147,23.61912 25.45024,30.73084 14.59354,13.29083 45.29311,31.08604 53.62839,31.08604 4.27534,0 7.54343,-2.80932 22.10536,-19.00227 6.67015,-7.41725 6.69579,-7.4333 11.05775,-6.92304 4.38326,0.51277 28.37318,11.21782 41.59016,18.55885 l 7.04126,3.91088 -0.016,10.02641 c -0.0147,9.18866 -0.26277,10.47435 -2.96958,15.3873 -4.13324,7.50199 -12.8013,15.1241 -23.45983,20.62901 -8.9228,4.60844 -9.23487,4.6873 -17.97372,4.5417 -4.89129,-0.0815 -12.7408,-0.48397 -17.44336,-0.89441 z"
     id="path10" />
  <path
     style="fill:#ffffff;fill-opacity:0.733333;stroke-width:1"
     d="m 275.61493,357.02489 c -11.78264,-0.85849 -17.67628,-2.25948 -31.96929,-7.59944 -27.74912,-10.36724 -50.4879,-25.53587 -75.20451,-50.16755 -20.03194,-19.96312 -36.85272,-42.53283 -46.15757,-61.93313 -6.04757,-12.60899 -7.61165,-19.20966 -7.61165,-32.12241 0,-18.2608 4.45709,-29.52793 16.58059,-41.91427 5.4962,-5.61535 8.05706,-7.4745 11.57338,-8.40213 5.56253,-1.46743 15.32162,-0.86902 17.70519,1.08566 4.30688,3.53191 22.54162,45.48796 22.54162,51.86569 0,3.16502 -2.82231,8.6656 -9.64903,18.80559 -8.12099,12.06242 -7.65394,15.22509 4.71572,31.93247 9.35445,12.63481 22.90997,25.60844 35.61308,34.08433 14.82786,9.89359 31.70714,18.16152 37.07743,18.16152 3.92824,0 4.58602,-0.51767 16.81128,-13.23037 12.06533,-12.54639 12.88558,-13.19787 15.86614,-12.60176 4.71945,0.94389 21.18149,8.11139 35.61253,15.50554 l 12.82515,6.57133 v 10.11014 c 0,12.13492 -1.50435,15.98585 -9.2839,23.76539 -6.18596,6.18597 -18.02619,13.77592 -24.55582,15.74105 -5.02468,1.51221 -6.19081,1.52996 -22.49034,0.34235 z"
     id="path11" />
  <path
     style="fill:#ffffff;fill-opacity:0.733333;stroke-width:1"
     d="m 276.11788,357.0759 c -15.65862,-1.12704 -32.24445,-6.28149 -51.80354,-16.09921 -42.83044,-21.49881 -90.66021,-72.45394 -106.2021,-113.14172 -2.20479,-5.772 -2.77599,-9.21713 -3.16876,-19.11198 -0.81178,-20.45047 3.34363,-32.0021 16.31111,-45.34328 5.49185,-5.65011 8.05916,-7.52986 11.58235,-8.48041 5.30538,-1.43138 15.45222,-0.76293 17.81723,1.17375 4.00548,3.28006 22.41852,45.69377 22.41852,51.64019 0,3.25907 -2.89989,8.98405 -9.33199,18.42327 -8.35583,12.26232 -7.86908,15.85862 4.39053,32.43886 14.02937,18.97369 34.07606,35.26765 57.64826,46.85648 16.69926,8.20988 16.22695,8.32584 31.88848,-7.82915 12.05382,-12.43363 12.99787,-13.18191 15.89856,-12.60177 4.66542,0.93308 21.19059,8.13455 35.55331,15.4937 l 12.82515,6.57133 -0.006,9.17036 c -0.003,5.0437 -0.47589,10.86379 -1.0507,12.93353 -2.20041,7.92319 -19.82761,23.0406 -31.62076,27.11856 -5.36688,1.85581 -7.36361,1.92374 -23.15003,0.78749 z"
     id="path12" />
  <path
     style="fill:#ffffff;fill-opacity:0.733333;stroke-width:1"
     d="m 4.0235756,475.17055 c 0,-0.33949 4.5641992,-17.65344 10.1426644,-38.47544 5.578466,-20.82199 12.182145,-45.4936 14.674843,-54.82578 l 4.532178,-16.96762 -6.643977,-14.98346 C 18.649646,331.69711 10.941074,308.94541 8.0297433,294.72692 6.0057063,284.84184 5.8956783,282.00571 6.3126938,250.46758 L 6.7582612,216.77014 9.8414809,205.20236 C 22.868725,156.32608 47.320861,116.63709 82.704352,86.936463 107.31249,66.280576 128.51458,54.627333 159.93713,44.487222 c 23.88556,-7.707909 24.44738,-7.775485 64.37721,-7.743404 33.43803,0.02687 36.26687,0.169732 44.47673,2.246232 54.27287,13.727117 95.53599,39.441535 127.09372,79.20248 19.28737,24.30099 34.68672,54.35366 42.26545,82.4833 5.22333,19.38725 5.86755,25.37638 5.78861,53.81533 -0.0781,28.17618 -0.92517,37.03299 -4.91254,51.37139 -17.86268,64.23328 -58.55995,114.85866 -115.2026,143.30631 -36.13759,18.14938 -74.27709,26.14183 -112.50905,23.57719 -26.57509,-1.78269 -42.6378,-5.53674 -74.98167,-17.52411 -9.7843,-3.62629 -18.90148,-6.59326 -20.26039,-6.59326 -1.35891,0 -26.617264,6.11081 -56.129679,13.57957 -29.512415,7.46876 -54.1675284,13.57957 -54.7891409,13.57957 -0.6216124,0 -1.1302045,-0.27777 -1.1302045,-0.61727 z M 246.98742,438.58236 c 21.14023,-2.22811 50.28068,-11.94125 70.9709,-23.65615 24.05016,-13.61732 46.47837,-34.65135 62.73983,-58.83977 6.94916,-10.33665 17.3969,-31.42195 21.62518,-43.64328 10.11977,-29.24986 11.92805,-69.57498 4.49625,-100.26747 C 392.29179,152.17761 346.46829,101.15823 287.18271,78.973378 264.26599,70.397868 262.07283,70.084557 224.31434,69.992121 l -33.69744,-0.08249 -10.05894,2.850898 c -19.86001,5.628713 -43.83977,16.197718 -59.03806,26.020848 -9.64892,6.236393 -19.33053,14.522393 -31.061313,26.583793 -23.59116,24.25605 -37.016128,48.10464 -47.345599,84.1064 l -4.102969,14.30025 0.471549,31.70545 c 0.444561,29.89086 0.616902,32.25236 3.011227,41.26143 3.58425,13.48639 8.819012,27.03933 17.981959,46.55579 4.359317,9.28505 7.926032,17.39627 7.926032,18.02495 0,0.62867 -3.394892,14.6583 -7.544204,31.17696 -4.149313,16.51866 -7.544205,31.21474 -7.544205,32.65795 0,2.52555 0.167398,2.60107 4.460949,2.01257 2.453521,-0.33629 18.11527,-4.0059 34.803886,-8.1547 l 30.342938,-7.54326 7.19219,3.92451 c 20.25803,11.05404 48.05735,20.52918 67.56141,23.02768 9.63024,1.23365 38.2506,1.32721 49.31367,0.16121 z"
     id="path13" />
</svg>
